<?xml version="1.0" encoding="UTF-8"?>
<svg version="1.1" xmlns="http://www.w3.org/2000/svg" width="1212" height="864">
<path d="M0 0 C399.96 0 799.92 0 1212 0 C1212 285.12 1212 570.24 1212 864 C812.04 864 412.08 864 0 864 C0 578.88 0 293.76 0 0 Z " fill="#2E5F7F" transform="translate(0,0)"/>
<path d="M0 0 C147.84 0 295.68 0 448 0 C448 277.86 448 555.72 448 842 C300.16 842 152.32 842 0 842 C0 564.14 0 286.28 0 0 Z " fill="#E7AD8A" transform="translate(9,9)"/>
<path d="M0 0 C68.31 0 136.62 0 207 0 C207 188.43 207 376.86 207 571 C75.66 571 -55.68 571 -191 571 C-191 658.12 -191 745.24 -191 835 C-303.53 835 -416.06 835 -532 835 C-532 674.95 -532 514.9 -532 350 C-356.44 350 -180.88 350 0 350 C0 234.5 0 119 0 0 Z " fill="#ECD0EC" transform="translate(992,12)"/>
<path d="M0 0 C399.96 0 799.92 0 1212 0 C1212 285.12 1212 570.24 1212 864 C812.04 864 412.08 864 0 864 C0 578.88 0 293.76 0 0 Z M9 9 C9 286.86 9 564.72 9 851 C156.84 851 304.68 851 457 851 C457 573.14 457 295.28 457 9 C309.16 9 161.32 9 9 9 Z M460 9 C460 124.5 460 240 460 359 C634.57 359 809.14 359 989 359 C989 243.5 989 128 989 9 C814.43 9 639.86 9 460 9 Z M992 12 C992 127.5 992 243 992 362 C816.44 362 640.88 362 460 362 C460 522.05 460 682.1 460 847 C572.53 847 685.06 847 801 847 C801 759.88 801 672.76 801 583 C932.34 583 1063.68 583 1199 583 C1199 394.57 1199 206.14 1199 12 C1130.69 12 1062.38 12 992 12 Z " fill="#4C7B31" transform="translate(0,0)"/>
<path d="M0 0 C399.96 0 799.92 0 1212 0 C1212 285.12 1212 570.24 1212 864 C812.04 864 412.08 864 0 864 C0 578.88 0 293.76 0 0 Z M9 9 C9 286.86 9 564.72 9 851 C156.84 851 304.68 851 457 851 C457 573.14 457 295.28 457 9 C309.16 9 161.32 9 9 9 Z M460 9 C460 124.5 460 240 460 359 C634.57 359 809.14 359 989 359 C989 243.5 989 128 989 9 C814.43 9 639.86 9 460 9 Z M992 12 C992 127.5 992 243 992 362 C816.44 362 640.88 362 460 362 C460 522.05 460 682.1 460 847 C572.53 847 685.06 847 801 847 C801 759.88 801 672.76 801 583 C932.34 583 1063.68 583 1199 583 C1199 394.57 1199 206.14 1199 12 C1130.69 12 1062.38 12 992 12 Z M804 586 C804 673.45 804 760.9 804 851 C935.67 851 1067.34 851 1203 851 C1203 763.55 1203 676.1 1203 586 C1071.33 586 939.66 586 804 586 Z " fill="#000000" transform="translate(0,0)"/>
<path d="M0 0 C399.96 0 799.92 0 1212 0 C1212 285.12 1212 570.24 1212 864 C812.04 864 412.08 864 0 864 C0 578.88 0 293.76 0 0 Z M2 2 C2 284.15 2 566.3 2 857 C400.31 857 798.62 857 1209 857 C1209 574.85 1209 292.7 1209 2 C810.69 2 412.38 2 2 2 Z " fill="#FFFFFF" transform="translate(0,0)"/>
<path d="M0 0 C325.38 0 650.76 0 986 0 C986 117.48 986 234.96 986 356 C810.44 356 634.88 356 454 356 C454 518.36 454 680.72 454 848 C304.18 848 154.36 848 0 848 C0 568.16 0 288.32 0 0 Z M3 3 C3 280.86 3 558.72 3 845 C150.84 845 298.68 845 451 845 C451 567.14 451 289.28 451 3 C303.16 3 155.32 3 3 3 Z M454 3 C454 118.5 454 234 454 353 C628.57 353 803.14 353 983 353 C983 237.5 983 122 983 3 C808.43 3 633.86 3 454 3 Z " fill="#0D2332" transform="translate(6,6)"/>
<path d="M0 0 C133.65 0 267.3 0 405 0 C405 89.43 405 178.86 405 271 C271.35 271 137.7 271 0 271 C0 181.57 0 92.14 0 0 Z M3 3 C3 90.45 3 177.9 3 268 C134.67 268 266.34 268 402 268 C402 180.55 402 93.1 402 3 C270.33 3 138.66 3 3 3 Z " fill="#0D2332" transform="translate(801,583)"/>
<path d="M0 0 C3.07141749 2.02582856 4.68692009 3.4812878 5.4453125 7.16015625 C5.63819881 11.01145299 5.21151555 13.54937991 3.5625 17.0625 C0.29699197 19.53154265 -1.85197003 19.67653173 -5.87109375 19.3984375 C-8 19 -8 19 -10.5625 17.6875 C-12.91947923 13.28097361 -12.84228885 8.86902066 -12 4 C-8.66962918 -0.3395741 -5.28825677 -0.84989841 0 0 Z " fill="#FDFBFD" transform="translate(792,462)"/>
<path d="M0 0 C3.07504636 2.02822207 4.66581629 3.49753176 5.48046875 7.16015625 C5.73957582 11.35488967 5.33216044 13.49137933 3 17.0625 C-1.18104138 19.76275589 -3.08116672 19.78076719 -8 19 C-10.92457659 16.80656756 -11.80110451 15.17253626 -12.41015625 11.58203125 C-12.65918792 7.2590969 -12.66372697 4.84474341 -9.9375 1.375 C-6.22953601 -0.36064272 -4.05052242 -0.65097682 0 0 Z " fill="#F4F7F2" transform="translate(981,712)"/>
<path d="M0 0 C3.07504636 2.02822207 4.66581629 3.49753176 5.48046875 7.16015625 C5.73957582 11.35488967 5.33216044 13.49137933 3 17.0625 C-1.18104138 19.76275589 -3.08116672 19.78076719 -8 19 C-10.92457659 16.80656756 -11.80110451 15.17253626 -12.41015625 11.58203125 C-12.65918792 7.2590969 -12.66372697 4.84474341 -9.9375 1.375 C-6.22953601 -0.36064272 -4.05052242 -0.65097682 0 0 Z " fill="#FDFAF8" transform="translate(210,423)"/>
<path d="M0 0 C3.07504636 2.02822207 4.66581629 3.49753176 5.48046875 7.16015625 C5.73957582 11.35488967 5.33216044 13.49137933 3 17.0625 C-1.18104138 19.76275589 -3.08116672 19.78076719 -8 19 C-10.92457659 16.80656756 -11.80110451 15.17253626 -12.41015625 11.58203125 C-12.65918792 7.2590969 -12.66372697 4.84474341 -9.9375 1.375 C-6.22953601 -0.36064272 -4.05052242 -0.65097682 0 0 Z " fill="#F2F5F7" transform="translate(702,177)"/>
<path d="M0 0 C1.32 0 2.64 0 4 0 C4 5.61 4 11.22 4 17 C4.99 17 5.98 17 7 17 C7 17.99 7 18.98 7 20 C6.01 20 5.02 20 4 20 C4 21.65 4 23.3 4 25 C2.68 25 1.36 25 0 25 C0 23.35 0 21.7 0 20 C-3.63 20 -7.26 20 -11 20 C-10.55923005 14.38234384 -8.40944328 11.04076775 -5.1875 6.625 C-4.74857422 5.98433594 -4.30964844 5.34367188 -3.85742188 4.68359375 C-2.54296875 2.8515625 -2.54296875 2.8515625 0 0 Z " fill="#F5F7F3" transform="translate(1049,706)"/>
<path d="M0 0 C5.61 0 11.22 0 17 0 C16.14616393 4.26918034 15.8521246 5.6560078 13.53125 8.91796875 C13.04269531 9.61470703 12.55414062 10.31144531 12.05078125 11.02929688 C11.53902344 11.74150391 11.02726563 12.45371094 10.5 13.1875 C9.48868796 14.61785695 8.47823005 16.04881828 7.46875 17.48046875 C7.01951172 18.10848389 6.57027344 18.73649902 6.10742188 19.38354492 C4.93541622 21.01535491 4.93541622 21.01535491 4 23 C8.29 23 12.58 23 17 23 C17 23.99 17 24.98 17 26 C10.73 26 4.46 26 -2 26 C-1.14316471 21.71582356 -0.82322726 20.30180406 1.50390625 17.01171875 C1.99697266 16.30595703 2.49003906 15.60019531 2.99804688 14.87304688 C3.51431641 14.15181641 4.03058594 13.43058594 4.5625 12.6875 C5.08263672 11.94693359 5.60277344 11.20636719 6.13867188 10.44335938 C7.41833871 8.62364965 8.70817975 6.81110219 10 5 C6.37 4.67 2.74 4.34 -1 4 C-0.67 2.68 -0.34 1.36 0 0 Z " fill="#EEF3EB" transform="translate(949,705)"/>
<path d="M0 0 C5.61 0 11.22 0 17 0 C16.14616393 4.26918034 15.8521246 5.6560078 13.53125 8.91796875 C13.04269531 9.61470703 12.55414062 10.31144531 12.05078125 11.02929688 C11.53902344 11.74150391 11.02726563 12.45371094 10.5 13.1875 C9.48868796 14.61785695 8.47823005 16.04881828 7.46875 17.48046875 C7.01951172 18.10848389 6.57027344 18.73649902 6.10742188 19.38354492 C4.93541622 21.01535491 4.93541622 21.01535491 4 23 C8.29 23 12.58 23 17 23 C17 23.99 17 24.98 17 26 C10.73 26 4.46 26 -2 26 C-1.14316471 21.71582356 -0.82322726 20.30180406 1.50390625 17.01171875 C1.99697266 16.30595703 2.49003906 15.60019531 2.99804688 14.87304688 C3.51431641 14.15181641 4.03058594 13.43058594 4.5625 12.6875 C5.08263672 11.94693359 5.60277344 11.20636719 6.13867188 10.44335938 C7.41833871 8.62364965 8.70817975 6.81110219 10 5 C6.37 4.67 2.74 4.34 -1 4 C-0.67 2.68 -0.34 1.36 0 0 Z " fill="#FDFAFD" transform="translate(760,455)"/>
<path d="M0 0 C5.61 0 11.22 0 17 0 C16.14616393 4.26918034 15.8521246 5.6560078 13.53125 8.91796875 C13.04269531 9.61470703 12.55414063 10.31144531 12.05078125 11.02929688 C11.53902344 11.74150391 11.02726563 12.45371094 10.5 13.1875 C9.48868796 14.61785695 8.47823005 16.04881828 7.46875 17.48046875 C7.01951172 18.10848389 6.57027344 18.73649902 6.10742188 19.38354492 C4.93541622 21.01535491 4.93541622 21.01535491 4 23 C8.29 23 12.58 23 17 23 C17 23.99 17 24.98 17 26 C10.73 26 4.46 26 -2 26 C-1.14316471 21.71582356 -0.82322726 20.30180406 1.50390625 17.01171875 C1.99697266 16.30595703 2.49003906 15.60019531 2.99804688 14.87304688 C3.51431641 14.15181641 4.03058594 13.43058594 4.5625 12.6875 C5.08263672 11.94693359 5.60277344 11.20636719 6.13867188 10.44335938 C7.41833871 8.62364965 8.70817975 6.81110219 10 5 C6.37 4.67 2.74 4.34 -1 4 C-0.67 2.68 -0.34 1.36 0 0 Z " fill="#FCF7F4" transform="translate(179,416)"/>
<path d="M0 0 C5.61 0 11.22 0 17 0 C16.14616393 4.26918034 15.8521246 5.6560078 13.53125 8.91796875 C13.04269531 9.61470703 12.55414062 10.31144531 12.05078125 11.02929688 C11.53902344 11.74150391 11.02726563 12.45371094 10.5 13.1875 C9.48868796 14.61785695 8.47823005 16.04881828 7.46875 17.48046875 C7.01951172 18.10848389 6.57027344 18.73649902 6.10742188 19.38354492 C4.93541622 21.01535491 4.93541622 21.01535491 4 23 C8.29 23 12.58 23 17 23 C17 23.99 17 24.98 17 26 C10.73 26 4.46 26 -2 26 C-1.14316471 21.71582356 -0.82322726 20.30180406 1.50390625 17.01171875 C1.99697266 16.30595703 2.49003906 15.60019531 2.99804688 14.87304688 C3.51431641 14.15181641 4.03058594 13.43058594 4.5625 12.6875 C5.08263672 11.94693359 5.60277344 11.20636719 6.13867188 10.44335938 C7.41833871 8.62364965 8.70817975 6.81110219 10 5 C6.37 4.67 2.74 4.34 -1 4 C-0.67 2.68 -0.34 1.36 0 0 Z " fill="#EBF0F3" transform="translate(670,170)"/>
<path d="M0 0 C2.4375 1.625 2.4375 1.625 4 4 C4 5.98 4 7.96 4 10 C0.04 10 -3.92 10 -8 10 C-7.34 11.65 -6.68 13.3 -6 15 C-3.58380177 15.25030977 -3.58380177 15.25030977 -1 15 C-0.34 14.01 0.32 13.02 1 12 C1.99 12 2.98 12 4 12 C3.25 16.75 3.25 16.75 1 19 C-3.13237851 19.68607056 -6.81774997 19.6055427 -10.5625 17.6875 C-12.91947923 13.28097361 -12.84228885 8.86902066 -12 4 C-8.66093649 -0.35090094 -5.30058083 -0.77099358 0 0 Z " fill="#FDFBFD" transform="translate(834,462)"/>
<path d="M0 0 C2.4375 1.625 2.4375 1.625 4 4 C4 5.98 4 7.96 4 10 C0.04 10 -3.92 10 -8 10 C-7.34 11.65 -6.68 13.3 -6 15 C-4.35 15 -2.7 15 -1 15 C-0.67 14.34 -0.34 13.68 0 13 C1.32 13 2.64 13 4 13 C3.42655063 15.86724686 3.1385485 16.8614515 1 19 C-2.0600573 19.56120742 -4.93410233 19.50644491 -8 19 C-10.99623584 16.80763231 -11.79512943 15.2193739 -12.40625 11.58203125 C-12.66167154 7.25902166 -12.66365198 4.84464798 -9.9375 1.375 C-6.27526509 -0.33923762 -4.0001851 -0.58184511 0 0 Z " fill="#F4F7F2" transform="translate(1023,712)"/>
<path d="M0 0 C2.4375 1.625 2.4375 1.625 4 4 C4 5.98 4 7.96 4 10 C0.04 10 -3.92 10 -8 10 C-7.34 11.65 -6.68 13.3 -6 15 C-4.35 15 -2.7 15 -1 15 C-0.67 14.34 -0.34 13.68 0 13 C1.32 13 2.64 13 4 13 C3.42655063 15.86724686 3.1385485 16.8614515 1 19 C-2.0600573 19.56120742 -4.93410233 19.50644491 -8 19 C-10.99623584 16.80763231 -11.79512943 15.2193739 -12.40625 11.58203125 C-12.66167154 7.25902166 -12.66365198 4.84464798 -9.9375 1.375 C-6.27526509 -0.33923762 -4.0001851 -0.58184511 0 0 Z " fill="#FDFAF8" transform="translate(253,423)"/>
<path d="M0 0 C2.4375 1.625 2.4375 1.625 4 4 C4 5.98 4 7.96 4 10 C0.04 10 -3.92 10 -8 10 C-7.34 11.65 -6.68 13.3 -6 15 C-4.35 15 -2.7 15 -1 15 C-0.67 14.34 -0.34 13.68 0 13 C1.32 13 2.64 13 4 13 C3.42655063 15.86724686 3.1385485 16.8614515 1 19 C-2.0600573 19.56120742 -4.93410233 19.50644491 -8 19 C-10.99623584 16.80763231 -11.79512943 15.2193739 -12.40625 11.58203125 C-12.66167154 7.25902166 -12.66365198 4.84464798 -9.9375 1.375 C-6.27526509 -0.33923762 -4.0001851 -0.58184511 0 0 Z " fill="#F2F5F7" transform="translate(744,177)"/>
<path d="M0 0 C2.375 0.5625 2.375 0.5625 4 2 C4.875 5.4375 4.875 5.4375 5 9 C4.01 10.485 4.01 10.485 3 12 C3.495 12.37125 3.99 12.7425 4.5 13.125 C6 15 6 15 6.4375 17.9375 C6 21 6 21 4.5625 23.375 C0.77460068 25.7770825 -2.63313541 25.65703284 -7 25 C-9.5625 23.8125 -9.5625 23.8125 -11 22 C-11.25 19.3125 -11.25 19.3125 -11 17 C-10.01 17 -9.02 17 -8 17 C-7.54625 17.66 -7.0925 18.32 -6.625 19 C-6.08875 19.66 -5.5525 20.32 -5 21 C-2.37374861 21.33425735 -2.37374861 21.33425735 0 21 C0.33 19.35 0.66 17.7 1 16 C-0.98 15.34 -2.96 14.68 -5 14 C-5 12.68 -5 11.36 -5 10 C-3.35 9.67 -1.7 9.34 0 9 C-0.33 7.35 -0.66 5.7 -1 4 C-3.47266765 4.34444881 -3.47266765 4.34444881 -6 5 C-6.33 5.66 -6.66 6.32 -7 7 C-8.32 7 -9.64 7 -11 7 C-10.61502006 4.76711635 -10.10506663 3.16343698 -8.875 1.25 C-5.928158 -0.71456134 -3.44903774 -0.30254717 0 0 Z " fill="#FDFBFD" transform="translate(861,456)"/>
<path d="M0 0 C2.5 1.5625 2.5 1.5625 4 4 C4.66688804 7.5345066 4.76083174 9.80475789 2.7890625 12.90234375 C0.08591683 16.1474907 -2.58342191 18.43756644 -6 21 C-2.37 21.33 1.26 21.66 5 22 C5 22.99 5 23.98 5 25 C-0.94 25 -6.88 25 -13 25 C-11.87714333 20.50857333 -11.00178892 19.79348552 -7.5625 16.9375 C-4.84539342 14.66524875 -2.97974488 12.96961731 -1 10 C-0.83286431 7.37468476 -0.83286431 7.37468476 -1 5 C-2.65 4.67 -4.3 4.34 -6 4 C-6.66 5.32 -7.32 6.64 -8 8 C-9.32 8 -10.64 8 -12 8 C-11.65447612 5.44312331 -11.24912987 3.42498625 -9.9375 1.1875 C-6.78028529 -0.74756708 -3.53573553 -0.62604573 0 0 Z " fill="#F1F5F7" transform="translate(772,171)"/>
<path d="M0 0 C0.99 0 1.98 0 3 0 C3 0.66 3 1.32 3 2 C3.99 1.34 4.98 0.68 6 0 C11.11418542 -0.53272765 11.11418542 -0.53272765 13.67578125 1.0078125 C15.77618434 4.16771096 15.31201218 7.53195006 15.1875 11.1875 C15.17396484 11.93708984 15.16042969 12.68667969 15.14648438 13.45898438 C15.11118539 15.30629767 15.05737917 17.15324066 15 19 C14.01 19 13.02 19 12 19 C11.67 14.38 11.34 9.76 11 5 C9.68 4.67 8.36 4.34 7 4 C6.01 4.66 5.02 5.32 4 6 C3.41407366 9.11610554 3.41407366 9.11610554 3.3125 12.625 C3.24675781 13.81351563 3.18101562 15.00203125 3.11328125 16.2265625 C3.07589844 17.14179687 3.03851562 18.05703125 3 19 C2.01 19 1.02 19 0 19 C0 12.73 0 6.46 0 0 Z " fill="#FAFBF9" transform="translate(991,712)"/>
<path d="M0 0 C0.99 0 1.98 0 3 0 C3 0.66 3 1.32 3 2 C3.99 1.34 4.98 0.68 6 0 C11.11418542 -0.53272765 11.11418542 -0.53272765 13.67578125 1.0078125 C15.77618434 4.16771096 15.31201218 7.53195006 15.1875 11.1875 C15.17396484 11.93708984 15.16042969 12.68667969 15.14648438 13.45898438 C15.11118539 15.30629767 15.05737917 17.15324066 15 19 C14.01 19 13.02 19 12 19 C11.67 14.38 11.34 9.76 11 5 C9.68 4.67 8.36 4.34 7 4 C6.01 4.66 5.02 5.32 4 6 C3.41407366 9.11610554 3.41407366 9.11610554 3.3125 12.625 C3.24675781 13.81351562 3.18101562 15.00203125 3.11328125 16.2265625 C3.07589844 17.14179688 3.03851562 18.05703125 3 19 C2.01 19 1.02 19 0 19 C0 12.73 0 6.46 0 0 Z " fill="#FEFDFE" transform="translate(802,462)"/>
<path d="M0 0 C0.99 0 1.98 0 3 0 C3 0.66 3 1.32 3 2 C3.99 1.34 4.98 0.68 6 0 C11.11418542 -0.53272765 11.11418542 -0.53272765 13.67578125 1.0078125 C15.77618434 4.16771096 15.31201218 7.53195006 15.1875 11.1875 C15.17396484 11.93708984 15.16042969 12.68667969 15.14648438 13.45898438 C15.11118539 15.30629767 15.05737917 17.15324066 15 19 C14.01 19 13.02 19 12 19 C11.67 14.38 11.34 9.76 11 5 C9.68 4.67 8.36 4.34 7 4 C6.01 4.66 5.02 5.32 4 6 C3.41407366 9.11610554 3.41407366 9.11610554 3.3125 12.625 C3.24675781 13.81351562 3.18101562 15.00203125 3.11328125 16.2265625 C3.07589844 17.14179688 3.03851563 18.05703125 3 19 C2.01 19 1.02 19 0 19 C0 12.73 0 6.46 0 0 Z " fill="#FEFCFB" transform="translate(221,423)"/>
<path d="M0 0 C0.99 0 1.98 0 3 0 C3 0.66 3 1.32 3 2 C3.99 1.34 4.98 0.68 6 0 C11.11418542 -0.53272765 11.11418542 -0.53272765 13.67578125 1.0078125 C15.77618434 4.16771096 15.31201218 7.53195006 15.1875 11.1875 C15.17396484 11.93708984 15.16042969 12.68667969 15.14648438 13.45898438 C15.11118539 15.30629767 15.05737917 17.15324066 15 19 C14.01 19 13.02 19 12 19 C11.67 14.38 11.34 9.76 11 5 C9.68 4.67 8.36 4.34 7 4 C6.01 4.66 5.02 5.32 4 6 C3.41407366 9.11610554 3.41407366 9.11610554 3.3125 12.625 C3.24675781 13.81351563 3.18101562 15.00203125 3.11328125 16.2265625 C3.07589844 17.14179688 3.03851562 18.05703125 3 19 C2.01 19 1.02 19 0 19 C0 12.73 0 6.46 0 0 Z " fill="#F9FAFB" transform="translate(712,177)"/>
<path d="M0 0 C0 8.25 0 16.5 0 25 C-1.32 25 -2.64 25 -4 25 C-4 18.73 -4 12.46 -4 6 C-5.98 6.99 -5.98 6.99 -8 8 C-8.99 8 -9.98 8 -11 8 C-11 6.68 -11 5.36 -11 4 C-4.5 0 -4.5 0 0 0 Z " fill="#FBF5F0" transform="translate(281,417)"/>
<path d="M0 0 C2.5 -0.375 2.5 -0.375 5 0 C7.71232939 4.06849409 7.30699887 6.16476784 7 11 C5 13 5 13 2.5 13.25 C0 13 0 13 -2 11 C-2.46376812 3.69565217 -2.46376812 3.69565217 0 0 Z " fill="#527F38" transform="translate(975,715)"/>
<path d="M0 0 C2.5 -0.375 2.5 -0.375 5 0 C7.71232939 4.06849409 7.30699887 6.16476784 7 11 C5 13 5 13 2.5 13.25 C0 13 0 13 -2 11 C-2.46376812 3.69565217 -2.46376812 3.69565217 0 0 Z " fill="#E7AF8E" transform="translate(204,426)"/>
<path d="M0 0 C2.5 -0.375 2.5 -0.375 5 0 C7.71232939 4.06849409 7.30699887 6.16476784 7 11 C5 13 5 13 2.5 13.25 C0 13 0 13 -2 11 C-2.46376812 3.69565217 -2.46376812 3.69565217 0 0 Z " fill="#346483" transform="translate(696,180)"/>
<path d="M0 0 C2.9375 0.375 2.9375 0.375 6 1 C7.11445498 3.22890995 7.16480286 4.53055106 7.1875 7 C7.20167969 7.70125 7.21585938 8.4025 7.23046875 9.125 C7 11 7 11 5 13 C2.5 13.25 2.5 13.25 0 13 C-2.60704898 10.39295102 -2.23905333 8.52661759 -2.265625 4.97265625 C-2 3 -2 3 0 0 Z " fill="#ECD1EC" transform="translate(786,465)"/>
<path d="M0 0 C3.96 0 7.92 0 12 0 C12.33 1.65 12.66 3.3 13 5 C12.67 4.34 12.34 3.68 12 3 C10.68 3 9.36 3 8 3 C7.67 3.99 7.34 4.98 7 6 C4.625 6.125 4.625 6.125 2 6 C1.34 5.34 0.68 4.68 0 4 C0 2.68 0 1.36 0 0 Z " fill="#638D4C" transform="translate(1015,722)"/>
<path d="M0 0 C3.96 0 7.92 0 12 0 C12.33 1.65 12.66 3.3 13 5 C12.67 4.34 12.34 3.68 12 3 C10.68 3 9.36 3 8 3 C7.67 3.99 7.34 4.98 7 6 C4.625 6.125 4.625 6.125 2 6 C1.34 5.34 0.68 4.68 0 4 C0 2.68 0 1.36 0 0 Z " fill="#EAB899" transform="translate(245,433)"/>
<path d="M0 0 C3.96 0 7.92 0 12 0 C12.33 1.65 12.66 3.3 13 5 C12.67 4.34 12.34 3.68 12 3 C10.68 3 9.36 3 8 3 C7.67 3.99 7.34 4.98 7 6 C4.625 6.125 4.625 6.125 2 6 C1.34 5.34 0.68 4.68 0 4 C0 2.68 0 1.36 0 0 Z " fill="#487590" transform="translate(736,187)"/>
<path d="M0 0 C0.33 0 0.66 0 1 0 C1 3.3 1 6.6 1 10 C-1.31 10 -3.62 10 -6 10 C-5.18957164 8.51969728 -4.37659652 7.04078858 -3.5625 5.5625 C-2.88380859 4.32693359 -2.88380859 4.32693359 -2.19140625 3.06640625 C-1 1 -1 1 0 0 Z " fill="#5B8642" transform="translate(1048,713)"/>
<path d="M0 0 C1.67542976 0.28604898 3.34385343 0.61781233 5 1 C5.33 2.32 5.66 3.64 6 5 C3.36 5 0.72 5 -2 5 C-1.125 1.125 -1.125 1.125 0 0 Z " fill="#628C4A" transform="translate(1017,715)"/>
<path d="M0 0 C1.67542976 0.28604898 3.34385343 0.61781233 5 1 C5.33 2.32 5.66 3.64 6 5 C3.36 5 0.72 5 -2 5 C-1.125 1.125 -1.125 1.125 0 0 Z " fill="#EED5EE" transform="translate(828,465)"/>
<path d="M0 0 C1.67542976 0.28604898 3.34385343 0.61781233 5 1 C5.33 2.32 5.66 3.64 6 5 C3.36 5 0.72 5 -2 5 C-1.125 1.125 -1.125 1.125 0 0 Z " fill="#E9B799" transform="translate(247,426)"/>
<path d="M0 0 C1.67542976 0.28604898 3.34385343 0.61781233 5 1 C5.33 2.32 5.66 3.64 6 5 C3.36 5 0.72 5 -2 5 C-1.125 1.125 -1.125 1.125 0 0 Z " fill="#47738F" transform="translate(738,180)"/>
</svg>
